<?xml version="1.0" encoding="UTF-8"?>
<!DOCTYPE svg PUBLIC "-//W3C//DTD SVG 1.1//EN" "http://www.w3.org/Graphics/SVG/1.1/DTD/svg11.dtd">
<!-- Creator: CorelDRAW 2020 (64-Bit) -->
<svg xmlns="http://www.w3.org/2000/svg" xml:space="preserve" width="219px" height="219px" version="1.1" style="shape-rendering:geometricPrecision; text-rendering:geometricPrecision; image-rendering:optimizeQuality; fill-rule:evenodd; clip-rule:evenodd"
viewBox="0 0 31.9 31.9"
 xmlns:xlink="http://www.w3.org/1999/xlink"
 xmlns:xodm="http://www.corel.com/coreldraw/odm/2003">
 <defs>
  <style type="text/css">
   <![CDATA[
    .str0 {stroke:black;stroke-width:0.13;stroke-miterlimit:22.9256}
    .fil0 {fill:black}
   ]]>
  </style>
 </defs>
<symbol id="Символ1" viewBox="93.55 214.84 31.9 31.9">
 <path class="fil0 str0" d="M109.5 214.9c8.77,0 15.88,7.12 15.88,15.89 0,8.77 -7.11,15.88 -15.88,15.88 -8.77,0 -15.88,-7.11 -15.88,-15.88 0,-8.77 7.11,-15.89 15.88,-15.89zm-6.02 23.2c0.09,-0.04 0.3,-0.06 0.48,-0.03 0.18,0.02 0.34,0.07 0.9,0.33 0.56,0.27 1.52,0.73 2.28,1.1 0.76,0.36 1.32,0.62 1.69,0.77 0.37,0.14 0.54,0.17 0.72,0.17 0.19,-0.01 0.39,-0.05 0.92,-0.27 0.52,-0.23 1.38,-0.64 2.13,-1.01 0.75,-0.37 1.41,-0.7 1.82,-0.88 0.41,-0.18 0.57,-0.22 0.73,-0.25 0.17,-0.02 0.32,-0.02 0.4,0 0.09,0.03 0.1,0.07 -0.19,0.27 -0.29,0.2 -0.9,0.57 -1.68,1.03 -0.79,0.46 -1.76,1.01 -2.47,1.39 -0.71,0.38 -1.15,0.6 -1.42,0.72 -0.27,0.11 -0.38,0.11 -1.06,-0.21 -0.68,-0.33 -1.93,-0.99 -2.92,-1.54 -0.98,-0.55 -1.69,-0.99 -2.05,-1.24 -0.36,-0.25 -0.37,-0.31 -0.28,-0.35zm-8.19 -3.2c0.07,0.02 0.16,0.06 0.27,0.2 0.11,0.13 0.25,0.37 0.4,0.55 0.15,0.18 0.31,0.31 0.53,0.46 0.22,0.14 0.51,0.31 1.47,0.85 0.96,0.54 2.6,1.47 4.02,2.27 1.42,0.81 2.62,1.5 3.77,2.15 1.16,0.65 2.26,1.26 2.9,1.58 0.63,0.32 0.79,0.35 0.92,0.36 0.13,0.01 0.23,-0.01 0.58,-0.19 0.35,-0.17 0.96,-0.51 2.18,-1.2 1.21,-0.7 3.05,-1.74 4.51,-2.56 1.47,-0.82 2.57,-1.41 3.46,-1.92 0.89,-0.5 1.55,-0.93 1.91,-1.19 0.36,-0.25 0.41,-0.33 0.42,-0.49 0.09,-0.74 0.08,-2.18 0.4,-2.77 0.34,-0.63 0.84,-0.73 0.9,-0.61 0.09,0.18 0.04,2.59 0.06,2.92 0.02,0.33 0.02,0.74 0,1.03 -0.03,0.29 -0.08,0.44 -0.15,0.56 -0.07,0.12 -0.16,0.21 -1.56,1.01 -1.39,0.81 -4.1,2.33 -6.3,3.6 -2.21,1.27 -3.92,2.29 -4.83,2.82 -0.91,0.53 -1.04,0.58 -1.2,0.62 -0.17,0.03 -0.38,0.05 -0.52,0.05 -0.15,-0.01 -0.22,-0.03 -1.6,-0.8 -1.37,-0.77 -4.03,-2.28 -6.17,-3.48 -2.14,-1.21 -3.75,-2.11 -4.74,-2.69 -1,-0.58 -1.37,-0.83 -1.58,-1.06 -0.2,-0.23 -0.24,-0.44 -0.25,-0.78 -0.01,-0.34 0,-0.83 0.03,-1.07 0.04,-0.24 0.1,-0.24 0.17,-0.22zm6.78 -5.11c0.33,-0.1 0.49,-0.2 0.74,-0.28 0.25,-0.08 0.64,-0.21 0.95,-0.34 0.32,-0.13 0.55,-0.28 0.89,-0.55 0.35,-0.26 0.81,-0.64 1.3,-1 0.5,-0.35 1.02,-0.67 1.44,-0.9 0.43,-0.22 0.75,-0.36 1.08,-0.46 0.32,-0.11 0.65,-0.19 0.98,-0.25 0.32,-0.06 0.65,-0.11 1.23,-0.14 0.59,-0.03 1.43,-0.04 2.46,-0.01 1.02,0.04 2.24,0.11 3.19,0.17 0.96,0.06 1.66,0.1 2.1,0.15 0.44,0.04 0.62,0.09 0.83,0.18 0.2,0.1 0.44,0.24 0.67,0.43 0.24,0.2 0.48,0.45 0.66,0.66 0.18,0.2 0.3,0.36 0.38,0.45 0.08,0.08 0.11,0.08 0.31,0.09 0.19,0.01 0.54,0.02 0.8,0.05 0.26,0.04 0.44,0.11 0.52,0.16 0.09,0.05 0.09,0.08 -0.03,0.13 -0.12,0.04 -0.36,0.09 -0.95,0.27 -0.6,0.18 -1.55,0.49 -2.13,0.68 -0.59,0.19 -0.81,0.26 -1.13,0.33 -0.31,0.08 -0.71,0.17 -1.12,0.21 -0.4,0.05 -0.79,0.06 -1.18,0.05 -0.38,-0.01 -0.74,-0.05 -1.08,-0.12 -0.34,-0.08 -0.66,-0.19 -0.87,-0.28 -0.22,-0.1 -0.35,-0.17 -0.38,-0.22 -0.03,-0.05 0.03,-0.07 0.17,-0.11 0.13,-0.03 0.35,-0.07 0.56,-0.14 0.2,-0.07 0.39,-0.16 0.58,-0.26 0.18,-0.1 0.35,-0.21 0.63,-0.46 0.27,-0.26 0.65,-0.67 0.89,-0.93 0.24,-0.27 0.34,-0.39 0.38,-0.47 0.05,-0.07 0.05,-0.09 -0.05,-0.1 -0.09,-0.01 -0.27,0 -0.94,-0.03 -0.66,-0.02 -1.81,-0.08 -2.84,-0.1 -1.03,-0.03 -1.94,-0.02 -2.69,0.03 -0.75,0.05 -1.33,0.14 -1.83,0.28 -0.49,0.15 -0.88,0.34 -1.22,0.54 -0.35,0.2 -0.63,0.4 -0.88,0.6 -0.25,0.2 -0.45,0.4 -0.57,0.52 -0.12,0.13 -0.15,0.18 -0.11,0.2 0.04,0.03 0.15,0.03 0.66,0.05 0.5,0.01 1.41,0.02 2.03,0.04 0.61,0.01 0.95,0.02 1.14,0.04 0.18,0.02 0.22,0.04 0.05,0.11 -0.17,0.08 -0.55,0.2 -0.87,0.29 -0.31,0.08 -0.56,0.12 -1.22,0.15 -0.65,0.03 -1.71,0.05 -2.43,0.07 -0.72,0.03 -1.1,0.08 -1.51,0.15 -0.41,0.08 -0.86,0.2 -1.38,0.37 -0.53,0.17 -1.15,0.4 -1.74,0.62 -0.58,0.23 -1.14,0.45 -0.97,0.34 0.16,-0.12 1.05,-0.58 1.58,-0.84 0.52,-0.26 0.69,-0.33 0.92,-0.42zm-0.05 -0.17c-0.33,0.1 -0.47,0.16 -1,0.29 -0.52,0.12 -1.19,0.29 -1.78,0.43 -0.59,0.15 -1.06,0.31 -1.39,0.47 -0.34,0.16 -0.54,0.32 -0.68,0.44 -0.13,0.12 -0.2,0.2 -0.27,0.32 -0.06,0.12 -0.13,0.28 -0.15,0.41 -0.02,0.13 0.01,0.23 0.08,0.32 0.07,0.09 0.2,0.18 0.75,0.24 0.55,0.06 1.52,0.09 2.92,0.1 1.4,0 3.23,-0.02 4.38,-0.05 1.16,-0.03 1.64,-0.06 1.99,-0.12 0.35,-0.06 0.58,-0.16 0.8,-0.31 0.22,-0.16 0.44,-0.36 0.66,-0.6 0.22,-0.23 0.45,-0.5 0.5,-0.59 0.05,-0.09 -0.07,0 -0.29,0.13 -0.21,0.13 -0.51,0.29 -0.78,0.43 -0.27,0.15 -0.52,0.26 -0.66,0.31 -0.14,0.04 -0.17,0.03 -0.16,-0.08 0.01,-0.11 0.07,-0.31 0.15,-0.47 0.09,-0.16 0.21,-0.28 0.5,-0.5 0.29,-0.22 0.75,-0.55 1.11,-0.79 0.37,-0.24 0.62,-0.4 0.93,-0.56 0.3,-0.16 0.65,-0.32 1.11,-0.39 0.46,-0.07 1.03,-0.05 1.55,0.04 0.51,0.09 0.98,0.26 1.46,0.43 0.48,0.17 0.97,0.35 1.34,0.47 0.38,0.12 0.63,0.18 1.01,0.2 0.38,0.02 0.9,0 1.61,-0.13 0.71,-0.12 1.62,-0.37 2.47,-0.64 0.86,-0.27 1.66,-0.56 2.12,-0.7 0.47,-0.15 0.58,-0.14 0.73,-0.12 0.14,0.03 0.31,0.07 0.46,0.18 0.16,0.12 0.31,0.31 0.42,0.53 0.12,0.21 0.2,0.44 0.23,0.71 0.03,0.26 0.01,0.57 -0.04,0.79 -0.06,0.23 -0.15,0.37 -0.22,0.45 -0.07,0.07 -0.1,0.07 -0.2,-0.02 -0.09,-0.09 -0.25,-0.27 -0.38,-0.43 -0.12,-0.16 -0.21,-0.29 -0.25,-0.47 -0.03,-0.18 -0.01,-0.41 0,-0.54 0,-0.14 -0.03,-0.19 -0.16,-0.19 -0.13,0 -0.36,0.05 -0.48,0.09 -0.12,0.04 -0.12,0.07 -0.06,0.13 0.06,0.06 0.19,0.16 0.3,0.28 0.11,0.12 0.21,0.26 0.26,0.42 0.05,0.17 0.05,0.35 0.03,0.44 -0.02,0.09 -0.07,0.07 -0.2,0.03 -0.13,-0.04 -0.34,-0.12 -0.54,-0.18 -0.19,-0.07 -0.37,-0.13 -0.54,-0.16 -0.17,-0.03 -0.33,-0.03 -0.47,0.01 -0.15,0.03 -0.27,0.09 -0.39,0.18 -0.12,0.08 -0.22,0.19 -0.33,0.35 -0.12,0.16 -0.25,0.37 -0.38,0.7 -0.13,0.32 -0.26,0.76 -0.39,1.04 -0.12,0.29 -0.23,0.42 -0.33,0.5 -0.11,0.07 -0.21,0.09 -0.37,0.1 -0.16,0.01 -0.39,0.01 -1.03,0.01 -0.65,0.01 -1.71,0.02 -2.26,0.02 -0.54,-0.01 -0.57,-0.02 -0.59,-0.05 -0.02,-0.03 -0.03,-0.08 0.04,-0.19 0.07,-0.1 0.23,-0.27 0.47,-0.41 0.25,-0.13 0.59,-0.23 1,-0.31 0.41,-0.08 0.9,-0.14 1.24,-0.23 0.35,-0.09 0.55,-0.2 0.77,-0.46 0.21,-0.26 0.44,-0.67 0.54,-0.87 0.11,-0.2 0.09,-0.2 0,-0.17 -0.09,0.03 -0.27,0.09 -0.48,0.16 -0.22,0.06 -0.48,0.13 -0.79,0.17 -0.31,0.05 -0.66,0.08 -1.01,0.08 -0.34,0 -0.67,-0.03 -1.05,-0.1 -0.38,-0.07 -0.82,-0.18 -1.12,-0.24 -0.3,-0.07 -0.46,-0.09 -0.52,-0.08 -0.07,0.02 -0.04,0.07 0.01,0.12 0.05,0.06 0.13,0.11 0.21,0.25 0.09,0.13 0.19,0.33 0.25,0.59 0.06,0.25 0.09,0.55 0.09,0.78 -0.01,0.22 -0.04,0.36 -0.07,0.43 -0.03,0.08 -0.07,0.09 -0.18,-0.02 -0.1,-0.11 -0.27,-0.33 -0.38,-0.53 -0.12,-0.2 -0.2,-0.38 -0.3,-0.54 -0.11,-0.16 -0.25,-0.31 -0.43,-0.45 -0.19,-0.13 -0.42,-0.24 -0.67,-0.33 -0.24,-0.09 -0.5,-0.15 -0.75,-0.18 -0.25,-0.02 -0.49,-0.01 -0.79,0.08 -0.29,0.08 -0.64,0.22 -0.93,0.42 -0.3,0.19 -0.54,0.43 -0.72,0.67 -0.17,0.23 -0.26,0.45 -0.39,0.63 -0.12,0.18 -0.27,0.32 -0.44,0.43 -0.18,0.1 -0.38,0.18 -0.61,0.25 -0.22,0.07 -0.47,0.13 -1.79,0.16 -1.33,0.03 -3.74,0.04 -5.83,0.04 -2.09,0 -3.86,0 -4.77,-0.02 -0.91,-0.01 -0.95,-0.05 -1,-0.14 -0.05,-0.09 -0.11,-0.25 -0.13,-0.55 -0.02,-0.3 0.01,-0.75 0.08,-1.13 0.08,-0.38 0.21,-0.7 0.47,-1.02 0.26,-0.33 0.64,-0.67 1.06,-0.91 0.41,-0.25 0.86,-0.41 1.46,-0.52 0.61,-0.11 1.38,-0.17 2.18,-0.21 0.8,-0.03 1.64,-0.05 2.08,-0.04 0.44,0 0.48,0.02 0.5,0.06 0.17,0.4 -0.05,0.32 -0.4,0.43zm9.01 -9.52c1.3,0.79 4.22,2.29 6.74,3.75 0.19,0.12 0.04,0.23 0.23,0.34 -0.45,-0.18 -0.91,-0.37 -2.08,-0.93 -1.17,-0.55 -3.06,-1.48 -4.19,-2 -1.13,-0.52 -1.49,-0.63 -1.77,-0.69 -0.28,-0.06 -0.63,-0.09 -1.49,0.25 -0.85,0.35 -2.2,1.06 -3.55,1.68 -1.35,0.61 -2.53,1.15 -3.71,1.68 0.12,-0.16 0.26,-0.26 1.66,-1.1 1.41,-0.84 3.96,-2.26 5.34,-2.97 1.38,-0.71 1.43,-0.85 2.82,-0.01zm-1.13 -3.45c0.12,0.01 0.17,0.03 2.41,1.29 2.24,1.26 6.68,3.77 8.97,5.07 0.39,0.23 2.47,1.27 2.71,1.76 0.17,0.32 0.08,3.46 0.08,3.85 -0.55,-0.1 -0.79,-2.61 -1.03,-2.9 -0.18,-0.22 -0.36,-0.34 -1.18,-0.82 -1.34,-0.78 -11.36,-6.61 -11.98,-6.65 -0.14,-0.01 -0.36,-0.01 -0.5,0 -0.54,0.07 -12.36,6.53 -12.66,7.32 -0.34,0.2 -0.2,1.96 -0.21,2.62 -0.02,0.45 -0.03,0.47 -0.24,0.59 -0.22,0.12 -0.63,0.35 -1.05,0.57 0.01,-0.53 -0.07,-4.34 0.19,-4.71 0.08,-0.12 0.3,-0.27 0.82,-0.59 0.53,-0.32 1.39,-0.8 3.61,-2.06 2.22,-1.25 5.8,-3.27 7.63,-4.3 1.82,-1.02 1.88,-1.04 2,-1.04 0.13,-0.01 0.31,-0.01 0.43,0zm-12.88 18.46c0.02,-0.27 0.04,-0.54 0.06,-0.8 4.09,0.16 8.17,0.32 12.19,0.34 4.01,0.03 7.95,-0.1 11.9,-0.22 0.03,0.28 0.07,0.55 0.1,0.83 -3.98,-0.07 -7.95,-0.14 -11.99,-0.16 -4.05,-0.03 -8.15,-0.01 -12.26,0.01z"/>
</symbol>
 <g id="Слой_x0020_1">
  <metadata id="CorelCorpID_0Corel-Layer"/>
  <use width="31.9" height="31.9" xlink:href="#Символ1"/>
 </g>
</svg>
