<?xml version="1.0" encoding="UTF-8"?>
<!DOCTYPE svg PUBLIC "-//W3C//DTD SVG 1.1//EN" "http://www.w3.org/Graphics/SVG/1.1/DTD/svg11.dtd">
<!-- Creator: CorelDRAW 2020 (64-Bit) -->
<svg xmlns="http://www.w3.org/2000/svg" xml:space="preserve" width="1009px" height="968px" version="1.1" style="shape-rendering:geometricPrecision; text-rendering:geometricPrecision; image-rendering:optimizeQuality; fill-rule:evenodd; clip-rule:evenodd"
viewBox="0 0 307.83 295.24"
 xmlns:xlink="http://www.w3.org/1999/xlink"
 xmlns:xodm="http://www.corel.com/coreldraw/odm/2003">
 <defs>
  <style type="text/css">
   <![CDATA[
    .str0 {stroke:black;stroke-width:0.27;stroke-miterlimit:22.9256}
    .fil0 {fill:black}
   ]]>
  </style>
 </defs>
 <g id="Копия_x0020_Слой_x0020_1">
  <metadata id="CorelCorpID_0Corel-Layer"/>
  <path class="fil0 str0" d="M92.65 223.36c0.98,-0.4 3.1,-0.56 4.98,-0.35 1.88,0.22 3.52,0.8 9.35,3.52 5.82,2.73 15.83,7.6 23.75,11.39 7.92,3.79 13.74,6.49 17.56,8 3.81,1.51 5.61,1.82 7.54,1.77 1.94,-0.05 4,-0.48 9.48,-2.83 5.48,-2.36 14.38,-6.65 22.22,-10.49 7.84,-3.84 14.61,-7.23 18.88,-9.13 4.26,-1.91 6.01,-2.33 7.68,-2.54 1.66,-0.22 3.25,-0.22 4.13,0 0.87,0.21 1.03,0.63 -2.02,2.75 -3.04,2.12 -9.29,5.93 -17.47,10.7 -8.18,4.76 -18.3,10.48 -25.66,14.48 -7.36,4 -11.97,6.28 -14.8,7.44 -2.83,1.17 -3.89,1.22 -10.96,-2.17 -7.07,-3.39 -20.15,-10.22 -30.37,-15.94 -10.23,-5.72 -17.59,-10.33 -21.35,-12.95 -3.76,-2.62 -3.92,-3.26 -2.94,-3.65z"/>
  <path class="fil0 str0" d="M7.48 190.11c0.76,0.2 1.61,0.6 2.77,2.01 1.17,1.42 2.65,3.86 4.2,5.75 1.55,1.89 3.16,3.24 5.47,4.77 2.3,1.52 5.29,3.21 15.31,8.87 10.03,5.65 27.08,15.26 41.84,23.66 14.76,8.39 27.24,15.57 39.23,22.33 12,6.77 23.51,13.12 30.11,16.46 6.59,3.33 8.26,3.65 9.61,3.72 1.35,0.06 2.38,-0.12 6.04,-1.96 3.65,-1.84 9.93,-5.34 22.6,-12.54 12.67,-7.2 31.73,-18.11 47,-26.62 15.26,-8.52 26.73,-14.63 35.94,-19.92 9.22,-5.28 16.18,-9.73 19.9,-12.37 3.72,-2.65 4.2,-3.5 4.4,-5.17 0.91,-7.69 0.8,-22.6 4.1,-28.75 3.53,-6.59 8.74,-7.67 9.41,-6.35 0.93,1.82 0.4,26.89 0.61,30.32 0.21,3.43 0.21,7.77 -0.05,10.75 -0.27,2.98 -0.8,4.6 -1.52,5.84 -0.73,1.25 -1.66,2.12 -16.2,10.5 -14.53,8.38 -42.68,24.27 -65.62,37.48 -22.95,13.21 -40.69,23.75 -50.19,29.29 -9.51,5.53 -10.78,6.06 -12.52,6.42 -1.73,0.36 -3.93,0.54 -5.42,0.5 -1.5,-0.04 -2.29,-0.3 -16.55,-8.29 -14.26,-7.98 -41.99,-23.68 -64.23,-36.22 -22.24,-12.54 -39,-21.91 -49.34,-27.92 -10.34,-6.01 -14.26,-8.66 -16.39,-11.06 -2.13,-2.39 -2.48,-4.54 -2.61,-8.11 -0.13,-3.58 -0.05,-8.58 0.32,-11.08 0.37,-2.51 1.03,-2.51 1.78,-2.31z"/>
  <path class="fil0 str0" d="M78 136.89c3.41,-1.03 5.04,-1.99 7.64,-2.87 2.61,-0.87 6.7,-2.14 9.95,-3.54 3.25,-1.4 5.66,-2.93 9.26,-5.68 3.61,-2.76 8.4,-6.72 13.53,-10.39 5.12,-3.66 10.58,-7.02 14.98,-9.38 4.41,-2.37 7.77,-3.73 11.16,-4.82 3.38,-1.1 6.79,-1.93 10.18,-2.6 3.4,-0.67 6.79,-1.18 12.86,-1.48 6.07,-0.31 14.84,-0.4 25.53,-0.05 10.69,0.35 23.3,1.15 33.24,1.78 9.95,0.62 17.23,1.05 21.81,1.52 4.57,0.46 6.45,0.95 8.6,1.92 2.16,0.97 4.59,2.44 7.06,4.47 2.48,2.03 4.98,4.64 6.86,6.78 1.87,2.14 3.11,3.82 3.92,4.69 0.8,0.86 1.17,0.91 3.17,0.98 2.01,0.08 5.67,0.17 8.39,0.56 2.73,0.39 4.53,1.07 5.42,1.6 0.89,0.52 0.86,0.89 -0.38,1.34 -1.24,0.45 -3.7,0.98 -9.87,2.86 -6.17,1.87 -16.06,5.09 -22.16,7.05 -6.1,1.96 -8.41,2.66 -11.67,3.46 -3.26,0.81 -7.48,1.71 -11.65,2.21 -4.18,0.5 -8.32,0.59 -12.28,0.46 -3.97,-0.13 -7.77,-0.5 -11.3,-1.27 -3.53,-0.76 -6.79,-1.93 -9.07,-2.9 -2.28,-0.98 -3.57,-1.76 -3.91,-2.27 -0.34,-0.51 0.27,-0.75 1.72,-1.11 1.45,-0.35 3.74,-0.81 5.87,-1.52 2.13,-0.7 4.1,-1.65 5.99,-2.69 1.88,-1.03 3.68,-2.15 6.56,-4.82 2.87,-2.67 6.81,-6.88 9.3,-9.64 2.48,-2.76 3.5,-4.08 3.99,-4.85 0.49,-0.76 0.44,-0.98 -0.54,-1.07 -0.97,-0.08 -2.87,-0.03 -9.78,-0.29 -6.92,-0.26 -18.85,-0.82 -29.55,-1.07 -10.7,-0.26 -20.17,-0.21 -27.96,0.3 -7.79,0.51 -13.9,1.49 -19.02,2.97 -5.11,1.49 -9.22,3.49 -12.78,5.56 -3.55,2.06 -6.55,4.21 -9.12,6.3 -2.56,2.09 -4.71,4.14 -5.92,5.42 -1.22,1.28 -1.51,1.79 -1.1,2.07 0.41,0.28 1.53,0.33 6.79,0.44 5.26,0.11 14.66,0.28 21.1,0.42 6.44,0.15 9.92,0.27 11.86,0.45 1.93,0.19 2.32,0.43 0.54,1.19 -1.77,0.77 -5.72,2.06 -8.99,2.93 -3.28,0.86 -5.88,1.3 -12.69,1.6 -6.8,0.31 -17.81,0.48 -25.29,0.78 -7.49,0.31 -11.46,0.75 -15.74,1.56 -4.29,0.82 -8.89,2.01 -14.39,3.79 -5.51,1.77 -11.91,4.14 -18,6.49 -6.1,2.35 -11.88,4.68 -10.16,3.47 1.71,-1.22 10.93,-5.99 16.4,-8.71 5.48,-2.71 7.2,-3.37 9.64,-4.4z"/>
  <path class="fil0 str0" d="M77.47 135.17c-3.46,1.07 -4.94,1.68 -10.4,2.97 -5.47,1.29 -12.4,3.07 -18.51,4.56 -6.11,1.5 -11,3.18 -14.5,4.84 -3.49,1.65 -5.58,3.28 -7,4.54 -1.41,1.25 -2.14,2.13 -2.83,3.38 -0.7,1.25 -1.35,2.89 -1.56,4.23 -0.21,1.33 0.04,2.38 0.8,3.36 0.77,0.97 2.06,1.87 7.77,2.49 5.71,0.62 15.84,0.96 30.41,1.01 14.57,0.05 33.59,-0.19 45.59,-0.47 12,-0.28 16.99,-0.6 20.67,-1.27 3.68,-0.67 6.04,-1.69 8.34,-3.27 2.3,-1.59 4.54,-3.73 6.84,-6.18 2.3,-2.44 4.66,-5.19 5.2,-6.12 0.53,-0.92 -0.76,-0.02 -2.96,1.3 -2.2,1.33 -5.32,3.08 -8.16,4.54 -2.83,1.46 -5.39,2.63 -6.85,3.13 -1.46,0.5 -1.83,0.33 -1.7,-0.79 0.12,-1.12 0.73,-3.19 1.63,-4.86 0.9,-1.66 2.09,-2.93 5.11,-5.24 3.02,-2.32 7.86,-5.68 11.63,-8.18 3.76,-2.51 6.44,-4.17 9.6,-5.82 3.17,-1.66 6.82,-3.31 11.6,-4.06 4.79,-0.74 10.7,-0.57 16.07,0.38 5.37,0.95 10.19,2.68 15.18,4.48 4.99,1.8 10.16,3.68 14.03,4.91 3.87,1.23 6.45,1.81 10.43,2.03 3.98,0.22 9.36,0.07 16.76,-1.27 7.4,-1.34 16.83,-3.87 25.73,-6.67 8.89,-2.8 17.27,-5.87 22.07,-7.36 4.79,-1.5 6.01,-1.43 7.49,-1.18 1.49,0.24 3.24,0.65 4.89,1.87 1.64,1.22 3.17,3.24 4.35,5.46 1.19,2.21 2.01,4.62 2.34,7.4 0.33,2.77 0.16,5.91 -0.42,8.25 -0.59,2.34 -1.59,3.87 -2.27,4.64 -0.68,0.77 -1.05,0.77 -2.04,-0.17 -1,-0.94 -2.63,-2.81 -3.94,-4.46 -1.3,-1.64 -2.27,-3.05 -2.63,-4.93 -0.35,-1.87 -0.08,-4.21 -0.07,-5.63 0.01,-1.43 -0.23,-1.94 -1.58,-1.94 -1.35,0 -3.81,0.51 -5.05,0.91 -1.25,0.41 -1.27,0.7 -0.62,1.37 0.64,0.67 1.96,1.71 3.14,2.95 1.18,1.25 2.22,2.68 2.75,4.38 0.52,1.69 0.52,3.64 0.27,4.54 -0.26,0.9 -0.77,0.75 -2.12,0.3 -1.35,-0.45 -3.54,-1.2 -5.57,-1.9 -2.02,-0.69 -3.87,-1.33 -5.62,-1.63 -1.75,-0.3 -3.41,-0.28 -4.91,0.06 -1.49,0.34 -2.83,1 -4.04,1.88 -1.2,0.87 -2.27,1.97 -3.48,3.64 -1.2,1.66 -2.54,3.9 -3.91,7.29 -1.36,3.38 -2.75,7.91 -4.01,10.87 -1.27,2.96 -2.41,4.34 -3.51,5.14 -1.1,0.79 -2.14,0.98 -3.83,1.08 -1.7,0.1 -4.03,0.1 -10.74,0.15 -6.71,0.04 -17.79,0.14 -23.46,0.12 -5.67,-0.03 -5.94,-0.17 -6.14,-0.49 -0.19,-0.32 -0.31,-0.8 0.43,-1.92 0.74,-1.12 2.35,-2.88 4.91,-4.28 2.55,-1.4 6.06,-2.44 10.34,-3.28 4.29,-0.84 9.35,-1.48 12.94,-2.39 3.6,-0.91 5.71,-2.11 7.95,-4.81 2.24,-2.7 4.61,-6.91 5.7,-9.02 1.1,-2.1 0.93,-2.1 -0.05,-1.78 -0.97,0.33 -2.75,0.99 -5,1.66 -2.25,0.67 -4.98,1.35 -8.19,1.84 -3.22,0.49 -6.92,0.78 -10.47,0.77 -3.56,-0.02 -6.97,-0.33 -10.95,-1.05 -3.98,-0.72 -8.53,-1.84 -11.65,-2.51 -3.11,-0.67 -4.79,-0.89 -5.48,-0.74 -0.68,0.14 -0.36,0.66 0.17,1.22 0.54,0.56 1.3,1.16 2.2,2.54 0.9,1.38 1.94,3.52 2.59,6.16 0.64,2.64 0.89,5.78 0.86,8.08 -0.02,2.3 -0.31,3.76 -0.67,4.54 -0.35,0.78 -0.76,0.88 -1.83,-0.23 -1.08,-1.11 -2.8,-3.42 -4.05,-5.5 -1.24,-2.08 -1.99,-3.93 -3.09,-5.64 -1.09,-1.7 -2.53,-3.26 -4.47,-4.63 -1.93,-1.38 -4.37,-2.57 -6.92,-3.5 -2.56,-0.92 -5.24,-1.58 -7.83,-1.82 -2.59,-0.25 -5.1,-0.08 -8.17,0.76 -3.07,0.84 -6.69,2.35 -9.77,4.37 -3.08,2.02 -5.62,4.56 -7.39,6.98 -1.78,2.42 -2.8,4.73 -4.08,6.61 -1.28,1.87 -2.81,3.31 -4.64,4.42 -1.83,1.11 -3.94,1.88 -6.28,2.6 -2.34,0.72 -4.89,1.38 -18.7,1.72 -13.8,0.34 -38.86,0.36 -60.6,0.38 -21.74,0.01 -40.17,0.01 -49.62,-0.16 -9.45,-0.17 -9.91,-0.51 -10.43,-1.49 -0.53,-0.97 -1.11,-2.58 -1.29,-5.71 -0.18,-3.13 0.03,-7.78 0.83,-11.74 0.79,-3.97 2.15,-7.26 4.84,-10.66 2.69,-3.39 6.71,-6.9 11.03,-9.48 4.32,-2.58 8.95,-4.24 15.25,-5.38 6.31,-1.14 14.29,-1.78 22.65,-2.15 8.35,-0.38 17.06,-0.5 21.62,-0.47 4.55,0.04 5.02,0.19 5.22,0.66 1.76,4.17 -0.54,3.35 -4.17,4.47z"/>
  <path class="fil0 str0" d="M171.23 36.17c13.48,8.15 43.84,23.75 70.02,39 2.03,1.18 0.41,2.37 2.44,3.55 -4.72,-1.94 -9.45,-3.89 -21.64,-9.68 -12.19,-5.8 -31.83,-15.44 -43.56,-20.84 -11.73,-5.4 -15.55,-6.56 -18.43,-7.2 -2.89,-0.63 -6.6,-0.9 -15.47,2.68 -8.87,3.57 -22.9,10.98 -36.93,17.39 -14.04,6.41 -26.32,11.97 -38.61,17.53 1.19,-1.64 2.72,-2.71 17.3,-11.46 14.58,-8.76 41.11,-23.46 55.48,-30.86 14.37,-7.39 14.88,-8.89 29.4,-0.11z"/>
  <path class="fil0 str0" d="M159.44 0.22c1.21,0.1 1.72,0.32 25.06,13.45 23.34,13.13 69.52,39.19 93.27,52.75 4.1,2.34 25.68,13.23 28.24,18.28 1.71,3.37 0.8,36 0.86,40.05 -5.78,-1.05 -8.31,-27.14 -10.77,-30.13 -1.87,-2.28 -3.77,-3.53 -12.29,-8.52 -13.93,-8.15 -118.13,-68.81 -124.55,-69.25 -1.52,-0.11 -3.77,-0.08 -5.27,0.09 -5.6,0.64 -128.5,67.84 -131.7,76.14 -3.5,2.08 -2,20.3 -2.19,27.17 -0.13,4.76 -0.26,4.95 -2.49,6.21 -2.22,1.26 -6.54,3.59 -10.85,5.92 0.05,-5.58 -0.79,-45.13 1.94,-49 0.88,-1.24 3.11,-2.8 8.58,-6.16 5.47,-3.36 14.39,-8.34 37.5,-21.37 23.1,-13.03 60.38,-34.1 79.34,-44.74 18.96,-10.63 19.6,-10.81 20.88,-10.9 1.28,-0.1 3.22,-0.1 4.44,0.01z"/>
  <path class="fil0 str0" d="M25.46 192.28c0.22,-2.79 0.43,-5.59 0.64,-8.38 42.49,1.71 84.98,3.42 126.74,3.63 41.75,0.22 82.77,-1.06 123.79,-2.34 0.36,2.88 0.71,5.76 1.07,8.63 -41.36,-0.72 -82.73,-1.44 -124.77,-1.7 -42.04,-0.25 -84.75,-0.05 -127.47,0.16z"/>
 </g>
</svg>
